<svg width="387" height="36" viewBox="0 0 387 36" fill="none" xmlns="http://www.w3.org/2000/svg">
<path d="M5.26263 30.44C2.09463 27.016 0.510628 22.808 0.510628 17.816C0.510628 12.824 2.09463 8.632 5.26263 5.24C8.46263 1.816 12.4946 0.103997 17.3586 0.103997C22.2226 0.103997 26.2546 1.816 29.4546 5.24C32.6546 8.632 34.2546 12.824 34.2546 17.816C34.2546 22.808 32.6546 27.016 29.4546 30.44C26.2546 33.864 22.2226 35.576 17.3586 35.576C12.4946 35.576 8.46263 33.864 5.26263 30.44ZM6.99063 6.728C4.33463 9.704 3.00663 13.4 3.00663 17.816C3.00663 22.232 4.33463 25.944 6.99063 28.952C9.67863 31.96 13.1346 33.464 17.3586 33.464C21.6146 33.464 25.0706 31.96 27.7266 28.952C30.4146 25.944 31.7586 22.232 31.7586 17.816C31.7586 13.4 30.4146 9.704 27.7266 6.728C25.0706 3.72 21.6146 2.216 17.3586 2.216C13.1026 2.216 9.64663 3.72 6.99063 6.728ZM53.9256 35V3.992C56.6776 3.768 59.0136 3.656 60.9336 3.656C63.8776 3.656 66.3096 4.424 68.2296 5.96C70.1496 7.464 71.1096 9.624 71.1096 12.44C71.1096 14.328 70.5656 16.072 69.4776 17.672C68.3896 19.272 67.1576 20.568 65.7816 21.56C69.5896 26.616 71.9416 29.64 72.8376 30.632C74.6616 32.52 76.6456 33.592 78.7896 33.848L78.7416 35.336C76.9496 35.304 75.4936 35.048 74.3736 34.568C73.2536 34.056 72.1336 33.208 71.0136 32.024C69.9256 30.84 67.5096 27.656 63.7656 22.472C61.1736 22.472 58.6296 22.392 56.1336 22.232V35H53.9256ZM62.5656 20.648C63.8136 20.648 65.1576 19.816 66.5976 18.152C68.0376 16.488 68.7576 14.552 68.7576 12.344C68.7576 10.136 68.0056 8.456 66.5016 7.304C64.9976 6.152 63.0456 5.576 60.6456 5.576C59.3656 5.576 57.8616 5.64 56.1336 5.768V20.408C58.4376 20.568 60.5816 20.648 62.5656 20.648ZM104.565 5.336C101.013 5.336 98.0209 6.696 95.5889 9.416C93.1889 12.104 91.9889 15.416 91.9889 19.352C91.9889 23.288 93.3489 26.632 96.0689 29.384C98.7889 32.104 101.989 33.464 105.669 33.464C109.381 33.464 112.261 33.032 114.309 32.168V19.352H116.517V33.176C114.021 34.712 110.485 35.48 105.909 35.48C101.333 35.48 97.4769 33.928 94.3409 30.824C91.2049 27.72 89.6369 23.912 89.6369 19.4C89.6369 14.856 91.0449 11.048 93.8609 7.976C96.7089 4.904 100.373 3.368 104.853 3.368C108.469 3.368 112.005 3.928 115.461 5.048L114.885 6.872C111.557 5.848 108.117 5.336 104.565 5.336ZM141.585 2.696H129.969V0.679998H155.505V2.696H143.889V35H141.585V2.696ZM170.757 35V3.848H172.965V35H170.757ZM207.867 35.48C203.419 35.48 199.691 33.928 196.683 30.824C193.675 27.72 192.171 23.928 192.171 19.448C192.171 14.936 193.675 11.128 196.683 8.024C199.691 4.92 203.419 3.368 207.867 3.368C212.315 3.368 216.043 4.92 219.051 8.024C222.059 11.128 223.563 14.936 223.563 19.448C223.563 23.928 222.059 27.72 219.051 30.824C216.043 33.928 212.315 35.48 207.867 35.48ZM207.867 5.336C204.027 5.336 200.827 6.696 198.267 9.416C195.739 12.136 194.475 15.48 194.475 19.448C194.475 23.384 195.739 26.712 198.267 29.432C200.827 32.12 204.027 33.464 207.867 33.464C211.739 33.464 214.939 32.12 217.467 29.432C219.995 26.712 221.259 23.384 221.259 19.448C221.259 15.48 219.995 12.136 217.467 9.416C214.939 6.696 211.739 5.336 207.867 5.336ZM242.785 35V3.656H243.841L264.289 27.176C265.025 28.008 265.697 28.84 266.305 29.672C266.945 30.472 267.281 30.888 267.313 30.92C267.249 30.152 267.217 28.648 267.217 26.408V3.848H269.425V35.192H268.369L247.537 11.288L244.897 8.072C244.961 8.712 244.993 10.216 244.993 12.584V35H242.785ZM292.077 24.2L287.613 35H285.357L298.413 3.656H299.709L312.861 35H310.413L305.901 24.2H292.077ZM298.941 7.208C298.461 8.648 298.029 9.848 297.645 10.808L292.845 22.328H305.133L300.381 10.856C299.645 9.064 299.165 7.848 298.941 7.208ZM328.782 35V3.992C331.534 3.768 333.87 3.656 335.79 3.656C338.734 3.656 341.166 4.424 343.086 5.96C345.006 7.464 345.966 9.624 345.966 12.44C345.966 14.328 345.422 16.072 344.334 17.672C343.246 19.272 342.014 20.568 340.638 21.56C344.446 26.616 346.798 29.64 347.694 30.632C349.518 32.52 351.502 33.592 353.646 33.848L353.598 35.336C351.806 35.304 350.35 35.048 349.23 34.568C348.11 34.056 346.99 33.208 345.87 32.024C344.782 30.84 342.366 27.656 338.622 22.472C336.03 22.472 333.486 22.392 330.99 22.232V35H328.782ZM337.422 20.648C338.67 20.648 340.014 19.816 341.454 18.152C342.894 16.488 343.614 14.552 343.614 12.344C343.614 10.136 342.862 8.456 341.358 7.304C339.854 6.152 337.902 5.576 335.502 5.576C334.222 5.576 332.718 5.64 330.99 5.768V20.408C333.294 20.568 335.438 20.648 337.422 20.648ZM374.493 35H372.333V23.864L360.573 3.848H363.213L372.285 19.304C372.989 20.712 373.389 21.464 373.485 21.56C373.677 21.144 374.077 20.408 374.685 19.352L383.757 3.848H386.253L374.493 23.96V35Z" fill="#ca8a04"/>
</svg>
