<svg width="276" height="187" viewBox="0 0 276 187" fill="none" xmlns="http://www.w3.org/2000/svg">
<path d="M127.36 182.751C117.141 172.435 100.083 161.401 83.5627 154.42C66.8817 147.37 51.0374 143.455 33.0483 141.941C29.5015 141.645 26.5609 141.369 26.5139 141.33C26.4681 141.33 26.5598 109.489 26.7432 70.6619L27.0459 0.0689997L30.321 0.344998C50.4312 2.06014 72.8766 8.59346 89.8594 17.6995C104.495 25.5458 119.609 37.6622 129.245 49.2719L131.67 52.1936V119.25C131.67 156.129 131.486 186.298 131.266 186.292C131.037 186.286 129.282 184.691 127.36 182.751ZM144.019 119.08V51.7441L148.702 46.364C154.681 39.4956 166.707 29.1476 174.66 24.0317C195.918 10.352 218.977 2.622 245.451 0.295712L248.81 0V70.6915V141.385L244.914 141.7C208.051 144.65 176.093 157.726 151.097 180.086L144.019 186.418V119.08ZM166.858 181.841C181.326 170.17 200.479 160.896 219.719 156.242C229.787 153.807 242.88 152.108 251.571 152.108C256.128 152.108 258.655 151.26 260.081 149.247C261.154 147.729 261.166 147.076 261.168 89.7946L261.17 31.8701L263.185 32.1855C264.293 32.3827 267.437 33.1318 270.171 33.881L275.142 35.2413V107.532C275.142 147.291 274.959 179.822 274.732 179.822C274.502 179.822 271.18 179.211 267.342 178.462C252.177 175.524 239.687 174.515 223.285 174.895C203.389 175.368 187.927 177.754 169.546 183.215L162.56 185.291L166.858 181.841ZM105.596 182.964C97.9623 180.614 85.3557 177.845 76.8453 176.65C65.2737 175.033 57.2905 174.603 43.1082 174.876C29.0168 175.132 20.4933 175.98 8.86579 178.249C5.61452 178.88 2.28942 179.53 1.4766 179.668L0 179.944L0.00252283 107.461L0.00527253 34.9751L6.31728 33.398C9.78867 32.5305 12.9315 31.7223 13.3009 31.6237C13.8351 31.4265 13.9727 43.2354 13.9727 89.4831C13.9727 152.681 13.8122 149.158 16.9483 150.931C18.0397 151.542 20.3074 151.818 26.7831 152.153C52.5195 153.415 76.9398 160.845 96.8762 173.488C101.175 176.214 111.493 183.702 112.084 184.524C112.497 185.095 112.222 185.036 105.597 182.986L105.596 182.964Z" fill="#0f766e"/>
</svg>
